<svg width="730" height="162" viewBox="0 0 730 162" fill="none" xmlns="http://www.w3.org/2000/svg">
<g clip-path="url(#clip0_53_13)">
<g clip-path="url(#clip1_53_13)">
<path d="M43.256 52.088H84.856V71.032H43.256V52.088ZM45.048 87.416H91.896V107H19.96V17.4H90.232V36.984H45.048V87.416ZM149.992 36.472C155.368 36.472 160.232 37.5813 164.584 39.8C168.936 41.9333 172.349 45.2613 174.824 49.784C177.384 54.3067 178.664 60.152 178.664 67.32V107H154.344V71.288C154.344 66.3387 153.32 62.7547 151.272 60.536C149.309 58.232 146.536 57.08 142.952 57.08C140.392 57.08 138.045 57.6773 135.912 58.872C133.779 59.9813 132.115 61.7307 130.92 64.12C129.725 66.5093 129.128 69.624 129.128 73.464V107H104.808V37.624H127.976V57.336L123.496 51.576C126.141 46.5413 129.768 42.7867 134.376 40.312C138.984 37.752 144.189 36.472 149.992 36.472ZM219.149 108.152C213.261 108.152 207.501 107.469 201.869 106.104C196.322 104.739 191.842 103.032 188.429 100.984L195.725 84.344C198.968 86.3067 202.765 87.8853 207.117 89.08C211.469 90.1893 215.736 90.744 219.917 90.744C224.013 90.744 226.829 90.3173 228.365 89.464C229.986 88.6107 230.797 87.4587 230.797 86.008C230.797 84.6427 230.029 83.6613 228.493 83.064C227.042 82.3813 225.08 81.8693 222.605 81.528C220.216 81.1867 217.57 80.8027 214.669 80.376C211.768 79.9493 208.824 79.3947 205.837 78.712C202.936 77.944 200.248 76.8347 197.773 75.384C195.384 73.848 193.464 71.8 192.013 69.24C190.562 66.68 189.837 63.4373 189.837 59.512C189.837 55.0747 191.117 51.1493 193.677 47.736C196.322 44.2373 200.162 41.5067 205.197 39.544C210.232 37.496 216.376 36.472 223.629 36.472C228.493 36.472 233.4 36.984 238.349 38.008C243.384 38.9467 247.608 40.3973 251.021 42.36L243.725 58.872C240.312 56.9093 236.898 55.5867 233.485 54.904C230.072 54.136 226.829 53.752 223.757 53.752C219.661 53.752 216.76 54.2213 215.053 55.16C213.432 56.0987 212.621 57.2507 212.621 58.616C212.621 59.9813 213.346 61.048 214.797 61.816C216.248 62.4987 218.168 63.0533 220.557 63.48C223.032 63.8213 225.72 64.2053 228.621 64.632C231.522 64.9733 234.424 65.528 237.325 66.296C240.312 67.064 243 68.216 245.389 69.752C247.864 71.2027 249.826 73.208 251.277 75.768C252.728 78.2427 253.453 81.4427 253.453 85.368C253.453 89.6347 252.13 93.4747 249.485 96.888C246.925 100.301 243.085 103.032 237.965 105.08C232.93 107.128 226.658 108.152 219.149 108.152ZM263.933 107V37.624H288.253V107H263.933ZM276.093 29.944C271.656 29.944 268.072 28.7067 265.341 26.232C262.61 23.7573 261.245 20.6853 261.245 17.016C261.245 13.3467 262.61 10.2747 265.341 7.8C268.072 5.32533 271.656 4.088 276.093 4.088C280.53 4.088 284.114 5.28266 286.845 7.672C289.576 9.976 290.941 12.9627 290.941 16.632C290.941 20.472 289.576 23.672 286.845 26.232C284.2 28.7067 280.616 29.944 276.093 29.944ZM349.242 36.472C354.618 36.472 359.482 37.5813 363.834 39.8C368.186 41.9333 371.599 45.2613 374.074 49.784C376.634 54.3067 377.914 60.152 377.914 67.32V107H353.594V71.288C353.594 66.3387 352.57 62.7547 350.522 60.536C348.559 58.232 345.786 57.08 342.202 57.08C339.642 57.08 337.295 57.6773 335.162 58.872C333.029 59.9813 331.365 61.7307 330.17 64.12C328.975 66.5093 328.378 69.624 328.378 73.464V107H304.058V37.624H327.226V57.336L322.746 51.576C325.391 46.5413 329.018 42.7867 333.626 40.312C338.234 37.752 343.439 36.472 349.242 36.472ZM435.551 107V94.072L433.887 90.872V67.064C433.887 63.224 432.692 60.28 430.303 58.232C427.999 56.0987 424.287 55.032 419.167 55.032C415.839 55.032 412.468 55.5867 409.055 56.696C405.642 57.72 402.74 59.1707 400.351 61.048L392.159 44.536C396.084 41.976 400.778 40.0133 406.239 38.648C411.786 37.1973 417.29 36.472 422.751 36.472C434.015 36.472 442.719 39.0747 448.863 44.28C455.092 49.4 458.207 57.464 458.207 68.472V107H435.551ZM415.071 108.152C409.524 108.152 404.831 107.213 400.991 105.336C397.151 103.459 394.207 100.899 392.159 97.656C390.196 94.4133 389.215 90.7867 389.215 86.776C389.215 82.5093 390.282 78.84 392.415 75.768C394.634 72.6107 398.004 70.2213 402.527 68.6C407.05 66.8933 412.895 66.04 420.063 66.04H436.447V78.712H423.391C419.466 78.712 416.692 79.352 415.071 80.632C413.535 81.912 412.767 83.6187 412.767 85.752C412.767 87.8853 413.578 89.592 415.199 90.872C416.82 92.152 419.039 92.792 421.855 92.792C424.5 92.792 426.89 92.152 429.023 90.872C431.242 89.5067 432.863 87.4587 433.887 84.728L437.215 93.688C435.935 98.4667 433.418 102.093 429.663 104.568C425.994 106.957 421.13 108.152 415.071 108.152ZM553.176 107V94.072L551.512 90.872V67.064C551.512 63.224 550.317 60.28 547.928 58.232C545.624 56.0987 541.912 55.032 536.792 55.032C533.464 55.032 530.093 55.5867 526.68 56.696C523.267 57.72 520.365 59.1707 517.976 61.048L509.784 44.536C513.709 41.976 518.403 40.0133 523.864 38.648C529.411 37.1973 534.915 36.472 540.376 36.472C551.64 36.472 560.344 39.0747 566.488 44.28C572.717 49.4 575.832 57.464 575.832 68.472V107H553.176ZM532.696 108.152C527.149 108.152 522.456 107.213 518.616 105.336C514.776 103.459 511.832 100.899 509.784 97.656C507.821 94.4133 506.84 90.7867 506.84 86.776C506.84 82.5093 507.907 78.84 510.04 75.768C512.259 72.6107 515.629 70.2213 520.152 68.6C524.675 66.8933 530.52 66.04 537.688 66.04H554.072V78.712H541.016C537.091 78.712 534.317 79.352 532.696 80.632C531.16 81.912 530.392 83.6187 530.392 85.752C530.392 87.8853 531.203 89.592 532.824 90.872C534.445 92.152 536.664 92.792 539.48 92.792C542.125 92.792 544.515 92.152 546.648 90.872C548.867 89.5067 550.488 87.4587 551.512 84.728L554.84 93.688C553.56 98.4667 551.043 102.093 547.288 104.568C543.619 106.957 538.755 108.152 532.696 108.152ZM628.41 108.152C620.218 108.152 613.05 106.616 606.906 103.544C600.847 100.387 596.111 96.12 592.698 90.744C589.37 85.2827 587.706 79.096 587.706 72.184C587.706 65.272 589.327 59.128 592.57 53.752C595.898 48.2907 600.463 44.0667 606.266 41.08C612.069 38.008 618.597 36.472 625.85 36.472C632.677 36.472 638.906 37.88 644.538 40.696C650.17 43.4267 654.65 47.48 657.978 52.856C661.306 58.232 662.97 64.76 662.97 72.44C662.97 73.2933 662.927 74.2747 662.842 75.384C662.757 76.4933 662.671 77.5173 662.586 78.456H607.674V65.656H649.658L640.442 69.24C640.527 66.0827 639.93 63.352 638.65 61.048C637.455 58.744 635.749 56.952 633.53 55.672C631.397 54.392 628.879 53.752 625.978 53.752C623.077 53.752 620.517 54.392 618.298 55.672C616.165 56.952 614.501 58.7867 613.306 61.176C612.111 63.48 611.514 66.2107 611.514 69.368V73.08C611.514 76.4933 612.197 79.4373 613.562 81.912C615.013 84.3867 617.061 86.3067 619.706 87.672C622.351 88.952 625.509 89.592 629.178 89.592C632.591 89.592 635.493 89.1227 637.882 88.184C640.357 87.16 642.789 85.624 645.178 83.576L657.978 96.888C654.65 100.557 650.554 103.373 645.69 105.336C640.826 107.213 635.066 108.152 628.41 108.152ZM598.202 29.304L614.842 9.84799H635.834L652.474 29.304H636.346L618.298 13.304H632.378L614.33 29.304H598.202Z" fill="black"/>
<path d="M29.768 148.126C27.64 148.126 25.624 147.734 23.72 146.95C21.844 146.166 20.416 145.172 19.436 143.968L20.024 143.422C20.948 144.514 22.278 145.438 24.014 146.194C25.778 146.95 27.682 147.328 29.726 147.328C31.854 147.328 33.59 147.034 34.934 146.446C36.306 145.858 37.314 145.074 37.958 144.094C38.63 143.086 38.966 141.98 38.966 140.776C38.966 139.376 38.63 138.256 37.958 137.416C37.286 136.548 36.39 135.876 35.27 135.4C34.15 134.896 32.932 134.49 31.616 134.182C30.3 133.846 28.97 133.51 27.626 133.174C26.31 132.838 25.092 132.404 23.972 131.872C22.852 131.312 21.956 130.556 21.284 129.604C20.612 128.652 20.276 127.406 20.276 125.866C20.276 124.578 20.612 123.374 21.284 122.254C21.984 121.134 23.048 120.224 24.476 119.524C25.932 118.824 27.808 118.474 30.104 118.474C31.672 118.474 33.212 118.726 34.724 119.23C36.264 119.706 37.566 120.35 38.63 121.162L38.168 121.834C36.992 120.966 35.69 120.322 34.262 119.902C32.834 119.482 31.462 119.272 30.146 119.272C28.102 119.272 26.408 119.58 25.064 120.196C23.72 120.784 22.726 121.582 22.082 122.59C21.438 123.57 21.116 124.676 21.116 125.908C21.116 127.336 21.452 128.484 22.124 129.352C22.796 130.192 23.692 130.864 24.812 131.368C25.932 131.844 27.15 132.25 28.466 132.586C29.81 132.894 31.14 133.23 32.456 133.594C33.772 133.93 34.99 134.378 36.11 134.938C37.23 135.47 38.126 136.198 38.798 137.122C39.47 138.046 39.806 139.264 39.806 140.776C39.806 142.064 39.456 143.268 38.756 144.388C38.056 145.508 36.964 146.418 35.48 147.118C33.996 147.79 32.092 148.126 29.768 148.126ZM55.7066 148.126C53.8586 148.126 52.2626 147.79 50.9186 147.118C49.6026 146.418 48.5806 145.396 47.8526 144.052C47.1526 142.708 46.8026 141.056 46.8026 139.096V126.286H47.6426V139.096C47.6426 141.784 48.3426 143.828 49.7426 145.228C51.1426 146.628 53.1166 147.328 55.6646 147.328C57.4846 147.328 59.0526 146.95 60.3686 146.194C61.6846 145.41 62.6926 144.318 63.3926 142.918C64.0926 141.518 64.4426 139.908 64.4426 138.088V126.286H65.2826V148H64.4426V141.868L64.5266 141.994C63.9106 143.87 62.8466 145.368 61.3346 146.488C59.8226 147.58 57.9466 148.126 55.7066 148.126ZM88.8052 148V142.834V142.12V133.804C88.8052 131.536 88.2172 129.828 87.0412 128.68C85.8652 127.532 84.1572 126.958 81.9172 126.958C80.2932 126.958 78.8092 127.238 77.4652 127.798C76.1212 128.358 74.9732 129.086 74.0212 129.982L73.4332 129.394C74.4692 128.414 75.7292 127.63 77.2132 127.042C78.6972 126.454 80.2512 126.16 81.8752 126.16C84.3952 126.16 86.3132 126.804 87.6292 128.092C88.9732 129.38 89.6452 131.27 89.6452 133.762V148H88.8052ZM80.5312 148.126C78.9072 148.126 77.5212 147.874 76.3732 147.37C75.2252 146.866 74.3432 146.152 73.7272 145.228C73.1392 144.304 72.8452 143.24 72.8452 142.036C72.8452 141 73.0832 140.048 73.5592 139.18C74.0632 138.284 74.8752 137.57 75.9952 137.038C77.1152 136.478 78.6412 136.198 80.5732 136.198H89.2672V136.996H80.5312C78.0672 136.996 76.3032 137.472 75.2392 138.424C74.2032 139.348 73.6852 140.538 73.6852 141.994C73.6852 143.618 74.2872 144.92 75.4912 145.9C76.6952 146.852 78.3752 147.328 80.5312 147.328C82.6312 147.328 84.3532 146.852 85.6972 145.9C87.0692 144.92 88.1052 143.548 88.8052 141.784L89.2252 142.33C88.6372 144.066 87.6012 145.466 86.1172 146.53C84.6612 147.594 82.7992 148.126 80.5312 148.126ZM120.104 148.126C118.116 148.126 116.338 147.664 114.77 146.74C113.202 145.788 111.956 144.486 111.032 142.834C110.136 141.182 109.688 139.292 109.688 137.164C109.688 135.008 110.136 133.104 111.032 131.452C111.956 129.8 113.202 128.512 114.77 127.588C116.338 126.636 118.116 126.16 120.104 126.16C122.092 126.16 123.884 126.636 125.48 127.588C127.076 128.512 128.336 129.8 129.26 131.452C130.184 133.104 130.646 135.008 130.646 137.164C130.646 139.292 130.184 141.182 129.26 142.834C128.336 144.486 127.076 145.788 125.48 146.74C123.884 147.664 122.092 148.126 120.104 148.126ZM109.562 156.148V126.286H110.402V134.266L109.982 137.206L110.402 140.146V156.148H109.562ZM120.104 147.328C121.952 147.328 123.604 146.908 125.06 146.068C126.544 145.2 127.706 143.996 128.546 142.456C129.386 140.916 129.806 139.152 129.806 137.164C129.806 135.148 129.386 133.384 128.546 131.872C127.706 130.332 126.544 129.128 125.06 128.26C123.604 127.392 121.952 126.958 120.104 126.958C118.256 126.958 116.59 127.392 115.106 128.26C113.65 129.128 112.502 130.332 111.662 131.872C110.822 133.384 110.402 135.148 110.402 137.164C110.402 139.152 110.822 140.916 111.662 142.456C112.502 143.996 113.65 145.2 115.106 146.068C116.59 146.908 118.256 147.328 120.104 147.328ZM137.74 148V116.836H138.58V148H137.74ZM162.1 148V142.834V142.12V133.804C162.1 131.536 161.512 129.828 160.336 128.68C159.16 127.532 157.452 126.958 155.212 126.958C153.588 126.958 152.104 127.238 150.76 127.798C149.416 128.358 148.268 129.086 147.316 129.982L146.728 129.394C147.764 128.414 149.024 127.63 150.508 127.042C151.992 126.454 153.546 126.16 155.17 126.16C157.69 126.16 159.608 126.804 160.924 128.092C162.268 129.38 162.94 131.27 162.94 133.762V148H162.1ZM153.826 148.126C152.202 148.126 150.816 147.874 149.668 147.37C148.52 146.866 147.638 146.152 147.022 145.228C146.434 144.304 146.14 143.24 146.14 142.036C146.14 141 146.378 140.048 146.854 139.18C147.358 138.284 148.17 137.57 149.29 137.038C150.41 136.478 151.936 136.198 153.868 136.198H162.562V136.996H153.826C151.362 136.996 149.598 137.472 148.534 138.424C147.498 139.348 146.98 140.538 146.98 141.994C146.98 143.618 147.582 144.92 148.786 145.9C149.99 146.852 151.67 147.328 153.826 147.328C155.926 147.328 157.648 146.852 158.992 145.9C160.364 144.92 161.4 143.548 162.1 141.784L162.52 142.33C161.932 144.066 160.896 145.466 159.412 146.53C157.956 147.594 156.094 148.126 153.826 148.126ZM177.943 148.126C176.235 148.126 174.933 147.636 174.037 146.656C173.141 145.676 172.693 144.388 172.693 142.792V121.54H173.533V142.582C173.533 144.122 173.911 145.298 174.667 146.11C175.423 146.922 176.529 147.328 177.985 147.328C179.441 147.328 180.645 146.88 181.597 145.984L182.185 146.572C181.681 147.104 181.037 147.496 180.253 147.748C179.497 148 178.727 148.126 177.943 148.126ZM168.493 127.084V126.286H180.883V127.084H168.493ZM202.501 148V142.834V142.12V133.804C202.501 131.536 201.913 129.828 200.737 128.68C199.561 127.532 197.853 126.958 195.613 126.958C193.989 126.958 192.505 127.238 191.161 127.798C189.817 128.358 188.669 129.086 187.717 129.982L187.129 129.394C188.165 128.414 189.425 127.63 190.909 127.042C192.393 126.454 193.947 126.16 195.571 126.16C198.091 126.16 200.009 126.804 201.325 128.092C202.669 129.38 203.341 131.27 203.341 133.762V148H202.501ZM194.227 148.126C192.603 148.126 191.217 147.874 190.069 147.37C188.921 146.866 188.039 146.152 187.423 145.228C186.835 144.304 186.541 143.24 186.541 142.036C186.541 141 186.779 140.048 187.255 139.18C187.759 138.284 188.571 137.57 189.691 137.038C190.811 136.478 192.337 136.198 194.269 136.198H202.963V136.996H194.227C191.763 136.996 189.999 137.472 188.935 138.424C187.899 139.348 187.381 140.538 187.381 141.994C187.381 143.618 187.983 144.92 189.187 145.9C190.391 146.852 192.071 147.328 194.227 147.328C196.327 147.328 198.049 146.852 199.393 145.9C200.765 144.92 201.801 143.548 202.501 141.784L202.921 142.33C202.333 144.066 201.297 145.466 199.813 146.53C198.357 147.594 196.495 148.126 194.227 148.126ZM213.094 148V122.044C213.094 120.448 213.542 119.16 214.438 118.18C215.362 117.2 216.664 116.71 218.344 116.71C219.128 116.71 219.898 116.836 220.654 117.088C221.438 117.34 222.082 117.732 222.586 118.264L221.998 118.852C221.55 118.404 221.004 118.068 220.36 117.844C219.744 117.62 219.086 117.508 218.386 117.508C216.93 117.508 215.824 117.914 215.068 118.726C214.312 119.538 213.934 120.714 213.934 122.254V126.412V126.874V148H213.094ZM208.894 127.084V126.286H221.284V127.084H208.894ZM233.371 148.126C231.355 148.126 229.549 147.664 227.953 146.74C226.385 145.788 225.139 144.486 224.215 142.834C223.291 141.154 222.829 139.25 222.829 137.122C222.829 134.966 223.291 133.076 224.215 131.452C225.139 129.8 226.385 128.512 227.953 127.588C229.549 126.636 231.355 126.16 233.371 126.16C235.387 126.16 237.193 126.636 238.789 127.588C240.385 128.512 241.631 129.8 242.527 131.452C243.451 133.076 243.913 134.966 243.913 137.122C243.913 139.25 243.451 141.154 242.527 142.834C241.631 144.486 240.385 145.788 238.789 146.74C237.193 147.664 235.387 148.126 233.371 148.126ZM233.371 147.328C235.219 147.328 236.871 146.894 238.327 146.026C239.811 145.158 240.973 143.954 241.813 142.414C242.653 140.874 243.073 139.11 243.073 137.122C243.073 135.106 242.653 133.342 241.813 131.83C240.973 130.29 239.811 129.1 238.327 128.26C236.871 127.392 235.219 126.958 233.371 126.958C231.523 126.958 229.871 127.392 228.415 128.26C226.959 129.1 225.797 130.29 224.929 131.83C224.089 133.342 223.669 135.106 223.669 137.122C223.669 139.11 224.089 140.874 224.929 142.414C225.797 143.954 226.959 145.158 228.415 146.026C229.871 146.894 231.523 147.328 233.371 147.328ZM251.025 148V126.286H251.865V132.292L251.781 132.166C252.369 130.262 253.391 128.792 254.847 127.756C256.331 126.692 258.179 126.16 260.391 126.16V127C260.363 127 260.321 127 260.265 127C260.237 127 260.195 127 260.139 127C257.535 127 255.505 127.84 254.049 129.52C252.593 131.172 251.865 133.44 251.865 136.324V148H251.025ZM293.699 126.16C295.435 126.16 296.933 126.51 298.193 127.21C299.453 127.882 300.419 128.89 301.091 130.234C301.791 131.578 302.141 133.23 302.141 135.19V148H301.301V135.19C301.301 132.502 300.629 130.458 299.285 129.058C297.969 127.658 296.121 126.958 293.741 126.958C291.893 126.958 290.297 127.35 288.953 128.134C287.637 128.89 286.615 129.968 285.887 131.368C285.187 132.74 284.837 134.35 284.837 136.198V148H283.997V135.19C283.997 132.502 283.325 130.458 281.981 129.058C280.665 127.658 278.817 126.958 276.437 126.958C274.589 126.958 272.993 127.35 271.649 128.134C270.333 128.89 269.311 129.968 268.583 131.368C267.883 132.74 267.533 134.35 267.533 136.198V148H266.693V126.286H267.533V132.418L267.449 132.292C268.065 130.416 269.143 128.932 270.683 127.84C272.223 126.72 274.127 126.16 276.395 126.16C278.635 126.16 280.483 126.734 281.939 127.882C283.395 129.002 284.305 130.682 284.669 132.922L284.543 132.88C285.075 130.892 286.125 129.282 287.693 128.05C289.289 126.79 291.291 126.16 293.699 126.16ZM325.424 148V142.834V142.12V133.804C325.424 131.536 324.836 129.828 323.66 128.68C322.484 127.532 320.776 126.958 318.536 126.958C316.912 126.958 315.428 127.238 314.084 127.798C312.74 128.358 311.592 129.086 310.64 129.982L310.052 129.394C311.088 128.414 312.348 127.63 313.832 127.042C315.316 126.454 316.87 126.16 318.494 126.16C321.014 126.16 322.932 126.804 324.248 128.092C325.592 129.38 326.264 131.27 326.264 133.762V148H325.424ZM317.15 148.126C315.526 148.126 314.14 147.874 312.992 147.37C311.844 146.866 310.962 146.152 310.346 145.228C309.758 144.304 309.464 143.24 309.464 142.036C309.464 141 309.702 140.048 310.178 139.18C310.682 138.284 311.494 137.57 312.614 137.038C313.734 136.478 315.26 136.198 317.192 136.198H325.886V136.996H317.15C314.686 136.996 312.922 137.472 311.858 138.424C310.822 139.348 310.304 140.538 310.304 141.994C310.304 143.618 310.906 144.92 312.11 145.9C313.314 146.852 314.994 147.328 317.15 147.328C319.25 147.328 320.972 146.852 322.316 145.9C323.688 144.92 324.724 143.548 325.424 141.784L325.844 142.33C325.256 144.066 324.22 145.466 322.736 146.53C321.28 147.594 319.418 148.126 317.15 148.126ZM354.162 148.126C352.174 148.126 350.382 147.664 348.786 146.74C347.19 145.788 345.93 144.486 345.006 142.834C344.082 141.154 343.62 139.25 343.62 137.122C343.62 134.966 344.082 133.076 345.006 131.452C345.93 129.8 347.19 128.512 348.786 127.588C350.382 126.636 352.174 126.16 354.162 126.16C356.15 126.16 357.928 126.636 359.496 127.588C361.064 128.512 362.296 129.8 363.192 131.452C364.116 133.076 364.578 134.966 364.578 137.122C364.578 139.25 364.116 141.154 363.192 142.834C362.296 144.486 361.064 145.788 359.496 146.74C357.928 147.664 356.15 148.126 354.162 148.126ZM354.162 147.328C356.01 147.328 357.662 146.894 359.118 146.026C360.602 145.158 361.764 143.954 362.604 142.414C363.444 140.874 363.864 139.11 363.864 137.122C363.864 135.106 363.444 133.342 362.604 131.83C361.764 130.29 360.602 129.1 359.118 128.26C357.662 127.392 356.01 126.958 354.162 126.958C352.314 126.958 350.662 127.392 349.206 128.26C347.75 129.1 346.588 130.29 345.72 131.83C344.88 133.342 344.46 135.106 344.46 137.122C344.46 139.11 344.88 140.874 345.72 142.414C346.588 143.954 347.75 145.158 349.206 146.026C350.662 146.894 352.314 147.328 354.162 147.328ZM363.864 148V140.02L364.284 137.08L363.864 134.14V116.836H364.704V148H363.864ZM382.633 148.126C380.533 148.126 378.671 147.664 377.047 146.74C375.423 145.788 374.135 144.486 373.183 142.834C372.259 141.154 371.797 139.25 371.797 137.122C371.797 134.966 372.231 133.076 373.099 131.452C373.967 129.8 375.157 128.512 376.669 127.588C378.209 126.636 379.931 126.16 381.835 126.16C383.739 126.16 385.447 126.622 386.959 127.546C388.499 128.442 389.703 129.702 390.571 131.326C391.467 132.95 391.915 134.812 391.915 136.912C391.915 136.94 391.915 136.968 391.915 136.996C391.915 137.024 391.915 137.066 391.915 137.122H372.259V136.324H391.453L391.117 136.954C391.117 135.05 390.711 133.342 389.899 131.83C389.087 130.318 387.981 129.128 386.581 128.26C385.209 127.392 383.627 126.958 381.835 126.958C380.071 126.958 378.489 127.392 377.089 128.26C375.689 129.128 374.583 130.318 373.771 131.83C372.987 133.342 372.595 135.05 372.595 136.954V137.122C372.595 139.11 373.029 140.874 373.897 142.414C374.765 143.954 375.955 145.158 377.467 146.026C378.979 146.894 380.701 147.328 382.633 147.328C384.089 147.328 385.461 147.048 386.749 146.488C388.065 145.928 389.157 145.088 390.025 143.968L390.613 144.556C389.661 145.732 388.485 146.628 387.085 147.244C385.685 147.832 384.201 148.126 382.633 148.126ZM423.37 148V142.834V142.12V133.804C423.37 131.536 422.782 129.828 421.606 128.68C420.43 127.532 418.722 126.958 416.482 126.958C414.858 126.958 413.374 127.238 412.03 127.798C410.686 128.358 409.538 129.086 408.586 129.982L407.998 129.394C409.034 128.414 410.294 127.63 411.778 127.042C413.262 126.454 414.816 126.16 416.44 126.16C418.96 126.16 420.878 126.804 422.194 128.092C423.538 129.38 424.21 131.27 424.21 133.762V148H423.37ZM415.096 148.126C413.472 148.126 412.086 147.874 410.938 147.37C409.79 146.866 408.908 146.152 408.292 145.228C407.704 144.304 407.41 143.24 407.41 142.036C407.41 141 407.648 140.048 408.124 139.18C408.628 138.284 409.44 137.57 410.56 137.038C411.68 136.478 413.206 136.198 415.138 136.198H423.832V136.996H415.096C412.632 136.996 410.868 137.472 409.804 138.424C408.768 139.348 408.25 140.538 408.25 141.994C408.25 143.618 408.852 144.92 410.056 145.9C411.26 146.852 412.94 147.328 415.096 147.328C417.196 147.328 418.918 146.852 420.262 145.9C421.634 144.92 422.67 143.548 423.37 141.784L423.79 142.33C423.202 144.066 422.166 145.466 420.682 146.53C419.226 147.594 417.364 148.126 415.096 148.126ZM444.169 148.126C442.181 148.126 440.403 147.664 438.835 146.74C437.267 145.788 436.021 144.486 435.097 142.834C434.201 141.182 433.753 139.292 433.753 137.164C433.753 135.008 434.201 133.104 435.097 131.452C436.021 129.8 437.267 128.512 438.835 127.588C440.403 126.636 442.181 126.16 444.169 126.16C446.157 126.16 447.949 126.636 449.545 127.588C451.141 128.512 452.401 129.8 453.325 131.452C454.249 133.104 454.711 135.008 454.711 137.164C454.711 139.292 454.249 141.182 453.325 142.834C452.401 144.486 451.141 145.788 449.545 146.74C447.949 147.664 446.157 148.126 444.169 148.126ZM433.627 156.148V126.286H434.467V134.266L434.047 137.206L434.467 140.146V156.148H433.627ZM444.169 147.328C446.017 147.328 447.669 146.908 449.125 146.068C450.609 145.2 451.771 143.996 452.611 142.456C453.451 140.916 453.871 139.152 453.871 137.164C453.871 135.148 453.451 133.384 452.611 131.872C451.771 130.332 450.609 129.128 449.125 128.26C447.669 127.392 446.017 126.958 444.169 126.958C442.321 126.958 440.655 127.392 439.171 128.26C437.715 129.128 436.567 130.332 435.727 131.872C434.887 133.384 434.467 135.148 434.467 137.164C434.467 139.152 434.887 140.916 435.727 142.456C436.567 143.996 437.715 145.2 439.171 146.068C440.655 146.908 442.321 147.328 444.169 147.328ZM461.805 148V126.286H462.645V132.292L462.561 132.166C463.149 130.262 464.171 128.792 465.627 127.756C467.111 126.692 468.959 126.16 471.171 126.16V127C471.143 127 471.101 127 471.045 127C471.017 127 470.975 127 470.919 127C468.315 127 466.285 127.84 464.829 129.52C463.373 131.172 462.645 133.44 462.645 136.324V148H461.805ZM485.542 148.126C483.442 148.126 481.58 147.664 479.956 146.74C478.332 145.788 477.044 144.486 476.092 142.834C475.168 141.154 474.706 139.25 474.706 137.122C474.706 134.966 475.14 133.076 476.008 131.452C476.876 129.8 478.066 128.512 479.578 127.588C481.118 126.636 482.84 126.16 484.744 126.16C486.648 126.16 488.356 126.622 489.868 127.546C491.408 128.442 492.612 129.702 493.48 131.326C494.376 132.95 494.824 134.812 494.824 136.912C494.824 136.94 494.824 136.968 494.824 136.996C494.824 137.024 494.824 137.066 494.824 137.122H475.168V136.324H494.362L494.025 136.954C494.025 135.05 493.62 133.342 492.808 131.83C491.996 130.318 490.89 129.128 489.49 128.26C488.118 127.392 486.536 126.958 484.744 126.958C482.98 126.958 481.398 127.392 479.998 128.26C478.598 129.128 477.492 130.318 476.68 131.83C475.896 133.342 475.504 135.05 475.504 136.954V137.122C475.504 139.11 475.938 140.874 476.806 142.414C477.674 143.954 478.864 145.158 480.376 146.026C481.888 146.894 483.61 147.328 485.542 147.328C486.998 147.328 488.37 147.048 489.658 146.488C490.974 145.928 492.066 145.088 492.934 143.968L493.522 144.556C492.57 145.732 491.394 146.628 489.994 147.244C488.594 147.832 487.11 148.126 485.542 148.126ZM511.872 126.16C513.664 126.16 515.204 126.51 516.492 127.21C517.78 127.882 518.774 128.89 519.474 130.234C520.202 131.578 520.566 133.23 520.566 135.19V148H519.726V135.19C519.726 132.502 519.04 130.458 517.668 129.058C516.296 127.658 514.378 126.958 511.914 126.958C510.01 126.958 508.372 127.35 507 128.134C505.628 128.89 504.578 129.968 503.85 131.368C503.122 132.74 502.758 134.35 502.758 136.198V148H501.918V126.286H502.758V132.46L502.674 132.334C503.318 130.43 504.424 128.932 505.992 127.84C507.56 126.72 509.52 126.16 511.872 126.16ZM537.953 148.126C535.965 148.126 534.173 147.664 532.577 146.74C530.981 145.788 529.721 144.486 528.797 142.834C527.873 141.154 527.411 139.25 527.411 137.122C527.411 134.966 527.873 133.076 528.797 131.452C529.721 129.8 530.981 128.512 532.577 127.588C534.173 126.636 535.965 126.16 537.953 126.16C539.941 126.16 541.719 126.636 543.287 127.588C544.855 128.512 546.087 129.8 546.983 131.452C547.907 133.076 548.369 134.966 548.369 137.122C548.369 139.25 547.907 141.154 546.983 142.834C546.087 144.486 544.855 145.788 543.287 146.74C541.719 147.664 539.941 148.126 537.953 148.126ZM537.953 147.328C539.801 147.328 541.453 146.894 542.909 146.026C544.393 145.158 545.555 143.954 546.395 142.414C547.235 140.874 547.655 139.11 547.655 137.122C547.655 135.106 547.235 133.342 546.395 131.83C545.555 130.29 544.393 129.1 542.909 128.26C541.453 127.392 539.801 126.958 537.953 126.958C536.105 126.958 534.453 127.392 532.997 128.26C531.541 129.1 530.379 130.29 529.511 131.83C528.671 133.342 528.251 135.106 528.251 137.122C528.251 139.11 528.671 140.874 529.511 142.414C530.379 143.954 531.541 145.158 532.997 146.026C534.453 146.894 536.105 147.328 537.953 147.328ZM547.655 148V140.02L548.075 137.08L547.655 134.14V116.836H548.495V148H547.655ZM566.424 148.126C564.324 148.126 562.462 147.664 560.838 146.74C559.214 145.788 557.926 144.486 556.974 142.834C556.05 141.154 555.588 139.25 555.588 137.122C555.588 134.966 556.022 133.076 556.89 131.452C557.758 129.8 558.948 128.512 560.46 127.588C562 126.636 563.722 126.16 565.626 126.16C567.53 126.16 569.238 126.622 570.75 127.546C572.29 128.442 573.494 129.702 574.362 131.326C575.258 132.95 575.706 134.812 575.706 136.912C575.706 136.94 575.706 136.968 575.706 136.996C575.706 137.024 575.706 137.066 575.706 137.122H556.05V136.324H575.244L574.908 136.954C574.908 135.05 574.502 133.342 573.69 131.83C572.878 130.318 571.772 129.128 570.372 128.26C569 127.392 567.418 126.958 565.626 126.958C563.862 126.958 562.28 127.392 560.88 128.26C559.48 129.128 558.374 130.318 557.562 131.83C556.778 133.342 556.386 135.05 556.386 136.954V137.122C556.386 139.11 556.82 140.874 557.688 142.414C558.556 143.954 559.746 145.158 561.258 146.026C562.77 146.894 564.492 147.328 566.424 147.328C567.88 147.328 569.252 147.048 570.54 146.488C571.856 145.928 572.948 145.088 573.816 143.968L574.404 144.556C573.452 145.732 572.276 146.628 570.876 147.244C569.476 147.832 567.992 148.126 566.424 148.126ZM582.801 148V126.286H583.641V132.292L583.557 132.166C584.145 130.262 585.167 128.792 586.623 127.756C588.107 126.692 589.955 126.16 592.167 126.16V127C592.139 127 592.097 127 592.041 127C592.013 127 591.971 127 591.915 127C589.311 127 587.281 127.84 585.825 129.52C584.369 131.172 583.641 133.44 583.641 136.324V148H582.801Z" fill="black"/>
<path d="M638 133.227C645.262 134.129 675.657 123.336 687.02 100.757C700.636 73.6979 697.913 65.5804 697.913 52.051C697.913 38.5216 727.869 95.345 703.359 122.404C678.85 149.463 643.447 135.933 638 133.227Z" fill="black" stroke="black"/>
</g>
</g>
<defs>
<clipPath id="clip0_53_13">
<rect width="730" height="162" fill="white"/>
</clipPath>
<clipPath id="clip1_53_13">
<rect width="730" height="162" fill="white"/>
</clipPath>
</defs>
</svg>
